# xmcd
#
# Track frame offsets:
# 150
# 11764
# 24289
# 38216
# 51346
# 66764
# 81750
# 95213
# 104449
# 120585
# 135525
# 148993
# 162444
# 181536
# 199590
# 210948
# 224391
# 234791
# 243580
# 257321
# 276721
# 290277
# 303806
#
# Disc length: 4312 seconds
#
#
# Revision: 0
# Processed by: cddbd v1.5.1PL0 Copyright (c) Steve Scherf et al.
# Submitted via: FreeRIP 2.942 
#
DISCID=4610d617
DTITLE=Goldwing Express - Truck Stops and Pretty Girls
DYEAR=2003
DGENRE=Bluegrass
TTITLE0=Listening to the rain
TTITLE1=Georgia Mules and Country Boys
TTITLE2=Love of the Mountain
TTITLE3=Cuckoo Bird
TTITLE4=Rocking Chair
TTITLE5=Till the rivers run dry
TTITLE6=Truck Stops and Pretty Girls
TTITLE7=Me and my ole banjo
TTITLE8=Miracles
TTITLE9=Matterhorn
TTITLE10=Sailing
TTITLE11=Lord I hope this day is good
TTITLE12=Ruby
TTITLE13=The Old Old House
TTITLE14=Listening to the rain
TTITLE15=It won't work this time
TTITLE16=Someday this old road
TTITLE17=Five in chimes
TTITLE18=Colorado calling me
TTITLE19=I've been on my knees
TTITLE20=Where no one stands alone
TTITLE21=Shield of Faith
TTITLE22=Struttin to Ferrum
EXTD=
EXTT0=
EXTT1=
EXTT2=
EXTT3=
EXTT4=
EXTT5=
EXTT6=
EXTT7=
EXTT8=
EXTT9=
EXTT10=
EXTT11=
EXTT12=
EXTT13=
EXTT14=
EXTT15=
EXTT16=
EXTT17=
EXTT18=
EXTT19=
EXTT20=
EXTT21=
EXTT22=
PLAYORDER=
